<!-- <svg id="logo-86" width="40" height="40" viewBox="0 0 40 40" fill="none" xmlns="http://www.w3.org/2000/svg"><path class="ccustom" fill-rule="evenodd" clip-rule="evenodd" d="M25.5557 11.6853C23.9112 10.5865 21.9778 10 20 10V0C23.9556 0 27.8224 1.17298 31.1114 3.37061C34.4004 5.56823 36.9638 8.69181 38.4776 12.3463C39.9913 16.0008 40.3874 20.0222 39.6157 23.9018C38.844 27.7814 36.9392 31.3451 34.1421 34.1421C31.3451 36.9392 27.7814 38.844 23.9018 39.6157C20.0222 40.3874 16.0008 39.9913 12.3463 38.4776C8.69181 36.9638 5.56823 34.4004 3.37061 31.1114C1.17298 27.8224 0 23.9556 0 20H10C10 21.9778 10.5865 23.9112 11.6853 25.5557C12.7841 27.2002 14.3459 28.4819 16.1732 29.2388C18.0004 29.9957 20.0111 30.1937 21.9509 29.8078C23.8907 29.422 25.6725 28.4696 27.0711 27.0711C28.4696 25.6725 29.422 23.8907 29.8078 21.9509C30.1937 20.0111 29.9957 18.0004 29.2388 16.1732C28.4819 14.3459 27.2002 12.7841 25.5557 11.6853Z" fill="#fff"></path><path class="ccustom" fill-rule="evenodd" clip-rule="evenodd" d="M10 5.16562e-07C10 1.31322 9.74135 2.61358 9.2388 3.82683C8.73625 5.04009 7.99966 6.14248 7.07107 7.07107C6.14249 7.99966 5.0401 8.73625 3.82684 9.2388C2.61358 9.74134 1.31322 10 5.4439e-06 10L5.00679e-06 20C2.62644 20 5.22716 19.4827 7.65368 18.4776C10.0802 17.4725 12.285 15.9993 14.1421 14.1421C15.9993 12.285 17.4725 10.0802 18.4776 7.65367C19.4827 5.22715 20 2.62643 20 -3.81469e-06L10 5.16562e-07Z" fill="#fff"></path></svg> -->

<svg xmlns="http://www.w3.org/2000/svg" viewBox="0 0 512 512" style="enable-background:new 0 0 512 512" xml:space="preserve"><circle style="fill:#fff082" cx="256" cy="256" r="248.5"/><path style="fill:#ffdc64" d="M425.936 376.591c-40.214 56.576-107.916 92.245-183.665 87.388-103.461-6.635-187.618-90.793-194.25-194.254-4.856-75.747 30.813-143.448 87.388-183.661 5.154-3.663 8.737-9.034 10.069-15.215 3.271-15.169 7.893-29.834 13.81-43.826C70.092 64.741 7.504 153.056 7.5 255.99 7.495 393.557 118.443 504.505 256.01 504.5c102.934-.004 191.248-62.592 228.968-151.788-13.992 5.917-28.657 10.539-43.827 13.81-6.18 1.332-11.552 4.915-15.215 10.069z"/><path style="fill:#ffdc64" d="M342.293 322.795c-79.443-9.711-143.377-73.644-153.087-153.087-2.056-16.821-1.702-33.226.733-48.945 2.067-13.342-12.164-23.391-23.777-16.504-55.911 33.16-91.936 96.307-85.848 167.306 7.237 84.394 75.727 152.885 160.121 160.121 70.998 6.088 134.146-29.936 167.306-85.848 6.887-11.613-3.161-25.843-16.504-23.777-15.718 2.435-32.123 2.79-48.944.734z"/><path style="fill:#fffab4" d="M336.161 127.742H175.838v32.065h48.097c20.894 0 38.667 13.414 45.291 32.065h-93.388v32.065h93.388C262.603 242.586 244.83 256 223.935 256h-48.097v31.145L276.414 400.29h42.896l-99.754-112.226h4.38c38.713 0 71.098-27.584 78.546-64.129h33.68V191.87h-33.68c-2.417-11.864-7.531-22.727-14.569-32.065h48.249l-.001-32.063z"/><path style="fill:#fff" d="M188.34 159.806h35.596c20.894 0 38.667 13.414 45.291 32.065h-75.663c2.877 11.131 6.749 21.875 11.666 32.065h63.997c-6.488 18.267-23.693 31.427-44.029 31.964 7.796 9.986 16.568 19.171 26.288 27.287 25.793-9.47 45.409-31.839 50.996-59.251h33.68v-32.065h-33.68c-2.417-11.864-7.531-22.727-14.569-32.065h48.249v-32.065H189.1a177.487 177.487 0 0 0-.76 32.065z"/><path d="M437.02 74.98C388.667 26.629 324.38 0 256 0S123.333 26.629 74.98 74.98C26.629 123.333 0 187.62 0 256s26.629 132.667 74.98 181.02C123.333 485.371 187.62 512 256 512s132.667-26.629 181.02-74.98C485.371 388.667 512 324.38 512 256s-26.629-132.667-74.98-181.02zm-10.607 351.433C380.894 471.932 320.374 497 256 497s-124.894-25.068-170.413-70.587S15 320.374 15 256 40.068 131.106 85.587 85.587 191.626 15 256 15s124.894 25.068 170.413 70.587S497 191.626 497 256s-25.068 124.894-70.587 170.413z"/><path d="M471.774 248.009a7.497 7.497 0 0 0-7.768-7.222 7.5 7.5 0 0 0-7.222 7.768 204.83 204.83 0 0 1-.001 14.896 7.501 7.501 0 0 0 14.99.545 220.005 220.005 0 0 0 .001-15.987zM248.556 55.216c4.935-.18 9.954-.18 14.889 0a7.5 7.5 0 0 0 .546-14.991 221.739 221.739 0 0 0-15.98 0 7.5 7.5 0 0 0-7.222 7.769c.149 4.139 3.611 7.363 7.767 7.222zM55.216 263.445a204.83 204.83 0 0 1 .001-14.896 7.501 7.501 0 0 0-7.222-7.768 7.492 7.492 0 0 0-7.768 7.223 220.005 220.005 0 0 0-.001 15.987 7.5 7.5 0 0 0 7.768 7.222 7.5 7.5 0 0 0 7.222-7.768zM263.45 456.784c-4.938.18-9.961.18-14.899 0a7.49 7.49 0 0 0-7.768 7.222 7.501 7.501 0 0 0 7.222 7.768 221.918 221.918 0 0 0 15.992 0 7.5 7.5 0 0 0 7.222-7.768 7.506 7.506 0 0 0-7.769-7.222zM403.241 392.711a205.973 205.973 0 0 1-10.533 10.532 7.5 7.5 0 0 0 10.213 10.987 219.86 219.86 0 0 0 11.306-11.305 7.5 7.5 0 0 0-10.986-10.214zM398.072 113.929c1.75 1.75 3.489 3.553 5.167 5.359a7.482 7.482 0 0 0 5.495 2.394 7.5 7.5 0 0 0 5.492-12.607 221.014 221.014 0 0 0-11.299-11.3 7.5 7.5 0 0 0-10.215 10.985 207.5 207.5 0 0 1 5.36 5.169zM109.08 97.771a218.394 218.394 0 0 0-5.757 5.552 217.57 217.57 0 0 0-5.548 5.753 7.5 7.5 0 0 0 10.985 10.214 206.804 206.804 0 0 1 10.533-10.533 7.5 7.5 0 0 0 .386-10.6 7.498 7.498 0 0 0-10.599-.386zM113.928 398.071a204.181 204.181 0 0 1-5.171-5.362 7.5 7.5 0 1 0-10.987 10.212 219.977 219.977 0 0 0 11.307 11.308 7.473 7.473 0 0 0 5.105 2.008 7.476 7.476 0 0 0 5.494-2.394 7.5 7.5 0 0 0-.386-10.6c-1.806-1.68-3.61-3.42-5.362-5.172zM345.961 59.711a218.692 218.692 0 0 0-14.77-6.118 7.501 7.501 0 0 0-5.232 14.058c2.316.862 4.648 1.779 6.931 2.724 2.29.949 4.588 1.95 6.831 2.976a7.468 7.468 0 0 0 3.116.682 7.5 7.5 0 0 0 3.124-14.322zM58.007 190.454a7.476 7.476 0 0 0 2.614.473 7.503 7.503 0 0 0 7.03-4.887 203.19 203.19 0 0 1 5.698-13.755 7.5 7.5 0 1 0-13.641-6.239 219.276 219.276 0 0 0-6.115 14.763 7.5 7.5 0 0 0 4.414 9.645zM186.042 444.35a206.986 206.986 0 0 1-6.931-2.724c-2.29-.949-4.588-1.95-6.831-2.976a7.501 7.501 0 0 0-6.241 13.64 218.692 218.692 0 0 0 14.77 6.118 7.481 7.481 0 0 0 2.615.473 7.504 7.504 0 0 0 7.03-4.885 7.5 7.5 0 0 0-4.412-9.646zM453.996 321.542a7.5 7.5 0 0 0-9.645 4.413 206.08 206.08 0 0 1-5.702 13.766 7.499 7.499 0 0 0 6.815 10.622 7.5 7.5 0 0 0 6.824-4.381 219.327 219.327 0 0 0 6.12-14.773 7.5 7.5 0 0 0-4.412-9.647zM441.625 179.112c.947 2.287 1.865 4.62 2.726 6.935a7.502 7.502 0 0 0 7.03 4.886 7.501 7.501 0 0 0 7.028-10.119 221.983 221.983 0 0 0-6.118-14.771 7.497 7.497 0 0 0-9.94-3.699 7.498 7.498 0 0 0-3.699 9.94 207.168 207.168 0 0 1 2.973 6.828zM169.17 74.03a7.471 7.471 0 0 0 3.116-.682 205.722 205.722 0 0 1 13.756-5.699 7.5 7.5 0 0 0-5.234-14.058 223.56 223.56 0 0 0-7.438 2.923 222.565 222.565 0 0 0-7.325 3.191 7.5 7.5 0 0 0-3.7 9.94 7.5 7.5 0 0 0 6.825 4.385zM70.375 332.888a205.024 205.024 0 0 1-2.726-6.935 7.502 7.502 0 0 0-9.645-4.413 7.501 7.501 0 0 0-4.413 9.646 221.983 221.983 0 0 0 6.118 14.771 7.5 7.5 0 1 0 13.639-6.241 207.168 207.168 0 0 1-2.973-6.828zM339.719 438.649a204.427 204.427 0 0 1-13.765 5.702 7.5 7.5 0 0 0 5.231 14.059 218.851 218.851 0 0 0 14.774-6.12c3.767-1.723 5.423-6.174 3.699-9.94s-6.175-5.425-9.939-3.701zM326.152 403.363a7.5 7.5 0 0 0-1.236-8.055l-89.351-100.522c34.446-4.638 63.406-29.583 72.82-63.35h27.777a7.5 7.5 0 0 0 7.5-7.5v-32.064a7.5 7.5 0 0 0-7.5-7.5h-27.779a85.547 85.547 0 0 0-6.822-17.064h34.601a7.5 7.5 0 0 0 7.5-7.5v-32.064a7.5 7.5 0 0 0-7.5-7.5h-16.034a7.5 7.5 0 0 0 0 15h8.534v17.064h-40.749a7.5 7.5 0 0 0-5.989 12.013c6.63 8.797 11.074 18.57 13.209 29.048a7.5 7.5 0 0 0 7.349 6.003h26.18v17.064h-26.18a7.5 7.5 0 0 0-7.349 6.002c-6.864 33.681-36.807 58.127-71.197 58.127h-4.38a7.499 7.499 0 0 0-5.606 12.483l88.659 99.743h-22.827l-96.443-108.497V263.5h40.597c23.445 0 44.487-14.891 52.358-37.054a7.498 7.498 0 0 0-7.067-10.01h-85.888v-17.064h85.888a7.499 7.499 0 0 0 7.067-10.011c-7.872-22.163-28.913-37.054-52.358-37.054h-40.597v-17.064h104.726a7.5 7.5 0 0 0 0-15H175.839a7.5 7.5 0 0 0-7.5 7.5v32.064a7.5 7.5 0 0 0 7.5 7.5h48.097c13.282 0 25.51 6.556 33.007 17.064h-81.104a7.5 7.5 0 0 0-7.5 7.5v32.064a7.5 7.5 0 0 0 7.5 7.5h81.104c-7.497 10.509-19.725 17.064-33.007 17.064h-48.097a7.5 7.5 0 0 0-7.5 7.5v31.145c0 1.837.674 3.61 1.895 4.983l100.575 113.146a7.5 7.5 0 0 0 5.605 2.517h42.896a7.5 7.5 0 0 0 6.842-4.427z"/></svg>
